<svg xmlns="http://www.w3.org/2000/svg" xmlns:xlink="http://www.w3.org/1999/xlink" viewBox="0 0 1803.7 489.9"><defs><style>.cls-1,.cls-10,.cls-2{fill:#fff;}.cls-1,.cls-2,.cls-8,.cls-9{fill-rule:evenodd;}.cls-2{stroke:#fff;}.cls-3,.cls-4{fill:#842020;}.cls-3{stroke-width:0.91px;stroke:url(#Degradado_sin_nombre);}.cls-5{fill:#dc9652;}.cls-6{fill:#530f0f;}.cls-7,.cls-9{fill:#d54c00;}.cls-8{fill:#d55454;}.cls-10{font-size:48.98px;font-family:YanoneKaffeesatz-Regular, Yanone Kaffeesatz;letter-spacing:-0.06em;}</style><linearGradient id="Degradado_sin_nombre" x1="446.67" y1="186.42" x2="1803.7" y2="186.42" gradientTransform="matrix(1, 0, 0, -1, 0, 590.98)" gradientUnits="userSpaceOnUse"><stop offset="0" stop-color="#e90404"/><stop offset="1" stop-color="#48020e" stop-opacity="0"/></linearGradient></defs><g id="Capa_2" data-name="Capa 2"><g id="svg20"><g id="g2"><path id="path25" class="cls-1" d="M959.78,94.05h47l4.47.67,4.53,3.33,3.63,3,5.87,8,8.33,15.73,11.17,20.77,15,27.5q16.2,30.78,31.5,62,30.17,51.43,57,105c1.94,5.68,2.65,9.75.71,15.41-1.07.69-2.94,2.78-4.21,3.09q-23.51,1-47,0a28.2,28.2,0,0,1-7.92-.83c-3.13-4.85-1.63-3.06-3.08-4.67l-7.24-11.24-16.38-30.88L1054,293.56l-10.75-21.51-7-14c-8.37-15.93-16.68-31.46-25.75-47-2.84-4.87-5.23-10-7.81-15-.44-.85-.85-1.72-1.25-2.59-.29-.65-4.8-7.79-5.26-8.34L992,180.05h0c-3.1-3.75-12.34-3.65-16.35-.72a8.43,8.43,0,0,0-.89.72c-3.88,3.55-6.48,8.31-9.15,12.84-5.49,9.28-10.12,19-15.27,28.51-1.13,2.08-2.47,4-3.58,6.15l-14,26.5-22.09,39.34-4.41,7.66-27.5,51-8,5.5-4,1q-22.5,1-45,0s-4.21-2-5.44-3.88c-1.35-2-1.56-7.18-1.56-7.18l7.12-14.82,3.38-6.62,20-40,7-12q7-12.06,14-24l36.5-68q10.4-20.31,21.5-40l4.37-7.88,16.13-30.12,3.5-5.5,6-4Z"/><path id="path23" class="cls-1" d="M970.21,184.55v1.77"/></g><g id="g3"><path id="path3" class="cls-2" d="M1282.49,149.05c-8.21.28-16.47-.15-24.62.85a25.28,25.28,0,0,0-5.38,1.15,91.24,91.24,0,0,0-20,10,128.13,128.13,0,0,0-22.5,19c-3.81,4-7.61,8.26-10,13.25a55.68,55.68,0,0,0-5,19.75c-1.08,14-.51,28.67,4,42,.45,1.33,1.53,6.62,2.23,7.84a73.56,73.56,0,0,0,9,12.75c5,6,11.82,10.1,18.27,14.41,5.39,3.6,11.33,6.33,17,9.5,9.42,5.26,21.21,4,32,5q89,.75,178,.5v54q-99,.24-198-.5c-28.25-2.56-53.4-12.18-74-30.5a168.65,168.65,0,0,1-25-27,79.06,79.06,0,0,1-4.63-6.56c-.82-1.24-6.35-12-6.87-13.44a157.5,157.5,0,0,1-9.5-38,143.92,143.92,0,0,1,9.5-70c.79-2,1.72-3.85,2.58-5.8a98.15,98.15,0,0,1,8.92-15.2c.67-1,1.58-2.63,2.2-3.66,1-1.7,9-10.41,10.4-11.8,6.08-6.06,1.28-1.09,7.36-7.22.75-.75,3.19-3.68,4-4.32,10.56-8,22.31-14.11,34-20,6.72-3.39,12.38-5.39,23-7.63a86.92,86.92,0,0,1,19-2.37c65.63-2.22,131.33-1.34,197-1v55C1397.66,148,1340,147.05,1282.49,149.05Z"/></g><g id="g4"><path id="path4" class="cls-1" d="M1480.48,94.05h311v59h-311Z"/></g><g id="g8"><path id="path8" class="cls-1" d="M1480.48,196.05h273v59h-206q.35,23,1,46h243v58q-154.5.49-309-1Q1480.53,277.11,1480.48,196.05Z"/></g><g id="g9"><path id="path9" class="cls-1" d="M630.48,435.05h95v7h-38v32h-19v-32h-38Z"/></g><g id="g10"><path id="path10" class="cls-1" d="M747.48,442.05h73v6h-56v6h33v6h-33v8h57v6h-74Z"/></g><g id="g11"><path id="path11" class="cls-1" d="M850.48,442.05q31.5-.26,63,.5,9.57.87,8,10.5-8.52.19-17,1v-6h-45v20h45v-7q8.35.6,16.5,2,2.32,9.61-7.5,10.5a582.57,582.57,0,0,1-67-1,4.69,4.69,0,0,1-3.5-3.5,120.65,120.65,0,0,1,0-22,9.19,9.19,0,0,1,1.5-2.5Q847.65,443.28,850.48,442.05Z"/></g><g id="g12"><path id="path12" class="cls-1" d="M942.48,442.05h17v13h51v-13h17v32h-17v-13h-51v13h-17Z"/></g><g id="g13"><path id="path13" class="cls-1" d="M1052.48,442.05a84.25,84.25,0,0,1,13,.5q27.94,10.4,56,20.5a110.91,110.91,0,0,0,1-21h15v32a85.52,85.52,0,0,1-13-.5q-28.38-10.71-57-20.5v21h-15Z"/></g><g id="g15"><path id="path15" class="cls-1" d="M1272.48,442.05h17v26h54v6h-71Z"/></g><g id="g17"><path id="path17" class="cls-1" d="M1480.48,442.05q34.5-.26,69,.5,7.74.07,8,7.5-8,.27-16,1v-3h-52v20h52v-7h-27v-6h43a97.72,97.72,0,0,1-.5,14,8.34,8.34,0,0,1-7.5,4.5q-34.5,1-69,0a14.38,14.38,0,0,1-6.5-2.5,47.12,47.12,0,0,1-1.5-13c.17-3.67.33-7.34.5-11a9.19,9.19,0,0,1,1.5-2.5Q1477.65,443.28,1480.48,442.05Z"/></g><g id="g18"><path id="path18" class="cls-1" d="M1573.48,443.05a89.14,89.14,0,0,1,23-.5q12.18,5.34,24,11.5l23-11.5a110,110,0,0,1,21,0q-18.18,7.83-36,16.5a57.16,57.16,0,0,0-1,15h-17a57.16,57.16,0,0,0-1-15Q1591.78,450.2,1573.48,443.05Z"/></g><path id="path27" class="cls-1" d="M1012.52,265.13c0,16.22-13.37,29.46-30.07,29.76s-30.57-12.43-31.19-28.64,12.23-29.93,28.9-30.84,31,11.32,32.27,27.5"/><rect id="rect27" class="cls-3" x="447.12" y="398.74" width="1356.13" height="11.65" rx="0.66"/><g id="g31"><path id="rect25" class="cls-1" d="M600.78,323.21h46.13a18.22,18.22,0,0,1,18.22,18.22h0a18.21,18.21,0,0,1-18.22,18.21H600.78a18.21,18.21,0,0,1-18.21-18.21h0A18.21,18.21,0,0,1,600.78,323.21Z"/><g id="g30"><g id="g5"><path id="path5" class="cls-1" d="M735.92,95.45a20.12,20.12,0,0,1,3.56.1q30.49.75,61,.5.43,131-1,262h-62q-1.18-67-1-134l-6.5,9-11.18,19-6.82,13-5.06,9-2.44,4-7,11,.38-.64c.66,0-10.3,19.83-13.4,25.22-1,.66-4.13,7.87-5.13,8.54-4.73,11.21-10.75,19.75-17.35,29.88a110.72,110.72,0,0,1-15.5,6.5q-23,1-46,0a55.66,55.66,0,0,0-14-5.5q-30.09-58.68-62.5-116-.84,61,.5,122-31.49-1-63-1v-262q31-.26,62,.5a9.19,9.19,0,0,1,2.5,1.5q50,92,100,184,31.14-50.19,60-102C704.12,152.1,720.39,124.84,735.92,95.45Z"/></g><path id="rect30" class="cls-1" d="M734.79,197.71h0a17.32,17.32,0,0,1,4.85,22.6L664.69,348.65a14.29,14.29,0,0,1-20.82,4.73h0A17.33,17.33,0,0,1,639,330.77l75-128.34A14.3,14.3,0,0,1,734.79,197.71Z"/></g></g><ellipse id="path35" class="cls-4" cx="210.1" cy="269.79" rx="210.1" ry="220.1"/><ellipse id="ellipse36" class="cls-5" cx="210.26" cy="270.14" rx="144.63" ry="218.58" transform="translate(-92.1 109.63) rotate(-24.14)"/><ellipse id="path34" class="cls-6" cx="208.22" cy="268.32" rx="216.23" ry="143.5" transform="translate(-131 285.08) rotate(-55.02)"/><ellipse id="ellipse35" class="cls-7" cx="211.76" cy="269.38" rx="220.16" ry="144.14" transform="translate(-69 465.79) rotate(-86.8)"/><g id="g34"><path id="rect31" class="cls-1" d="M264.66,142.56h0c44.4,20.84,64.08,75.55,43.95,122.2L263.43,369.44C243.3,416.09,191,437,146.59,416.16h0c-44.41-20.84-64.08-75.55-43.95-122.2l45.17-104.68C167.94,142.63,220.25,121.72,264.66,142.56Z"/><path id="rect35" class="cls-1" d="M335.79.18h0c1.93.76,2.42,3.62,1.08,6.4L273.11,139.19c-1.34,2.77-4,4.41-5.92,3.66h0c-1.94-.75-2.43-3.61-1.09-6.39L329.86,3.85C331.2,1.07,333.85-.57,335.79.18Z"/><polygon id="rect32" class="cls-8" points="127.62 230.8 293.5 302.08 292.55 304.49 126.67 233.21 127.62 230.8"/><polygon id="rect33" class="cls-8" points="267.27 144.01 213.53 268.63 211.38 267.57 265.12 142.96 267.27 144.01"/><path id="rect34" class="cls-9" d="M243.76,192.31l2.44,1.15a13.24,13.24,0,0,1,6.19,17.21l-13.81,32a12.27,12.27,0,0,1-16.46,6.58l-2.44-1.15a13.22,13.22,0,0,1-6.19-17.21l13.81-32A12.27,12.27,0,0,1,243.76,192.31Z"/></g><text class="cls-10" transform="translate(1347.65 474.08) scale(5.65 1)">O</text><text class="cls-10" transform="translate(1146.43 474.05) scale(5.65 1)">O</text></g></g></svg>