<?xml version="1.0" encoding="utf-8"?>
<!-- Generator: Adobe Illustrator 25.2.3, SVG Export Plug-In . SVG Version: 6.00 Build 0)  -->
<svg version="1.1"
	 id="svg20" inkscape:version="1.3 (0e150ed6c4, 2023-07-21)" xmlns:inkscape="http://www.inkscape.org/namespaces/inkscape" xmlns:sodipodi="http://sodipodi.sourceforge.net/DTD/sodipodi-0.dtd" xmlns:svg="http://www.w3.org/2000/svg"
	 xmlns="http://www.w3.org/2000/svg" xmlns:xlink="http://www.w3.org/1999/xlink" x="0px" y="0px" viewBox="0 0 1920 1080"
	 style="enable-background:new 0 0 1920 1080;" xml:space="preserve">
<style type="text/css">
	.st0{fill-rule:evenodd;clip-rule:evenodd;fill:#FFFFFF;}
	.st1{fill-rule:evenodd;clip-rule:evenodd;fill:#FFFFFF;stroke:#FFFFFF;}
	.st2{fill-rule:evenodd;clip-rule:evenodd;fill:#842020;stroke:url(#rect27_1_);stroke-width:0.9057;}
	.st3{fill-rule:evenodd;clip-rule:evenodd;fill:#842020;}
	.st4{fill-rule:evenodd;clip-rule:evenodd;fill:#DC9652;}
	.st5{fill-rule:evenodd;clip-rule:evenodd;fill:#530F0F;}
	.st6{fill-rule:evenodd;clip-rule:evenodd;fill:#D54C00;}
	.st7{fill-rule:evenodd;clip-rule:evenodd;fill:#D55454;}
	.st8{fill:#FFFFFF;}
	.st9{font-family:'YanoneKaffeesatz-Bold';}
	.st10{font-size:70.8491px;}
	.st11{letter-spacing:-4.2;}
</style>
<defs>
	
		<inkscape:path-effect  apply_no_radius="true" apply_with_radius="true" chamfer_steps="1" effect="fillet_chamfer" flexible="false" hide_knots="false" id="path-effect27" is_visible="true" lpeversion="1" method="auto" mode="F" nodesatellites_param="F,0,0,1,0,0,0,1 @ F,0,0,1,0,0,0,1 @ F,0,0,1,0,0,0,1 @ F,0,0,1,0,0,0,1 @ F,0,0,1,0,0,0,1 @ F,0,0,1,0,0,0,1 @ F,0,0,1,0,0,0,1 @ F,0,0,1,0,0,0,1 @ F,0,0,1,0,0,0,1 @ F,0,0,1,0,0,0,1 @ F,0,0,1,0,0,0,1 @ F,0,0,1,0,0,0,1 @ F,0,0,1,0,0,0,1 @ F,0,0,1,0,0,0,1 @ F,0,0,1,0,0,0,1 @ F,0,0,1,0,0,0,1 @ F,0,0,1,0,0,0,1 @ F,0,0,1,0,0,0,1 @ F,0,0,1,0,0,0,1 @ F,0,0,1,0,0,0,1 @ F,0,0,1,0,0,0,1 @ F,0,0,1,0,0,0,1 @ F,0,0,1,0,0,0,1 @ F,0,0,1,0,0,0,1 @ F,0,0,1,0,0,0,1 @ F,0,0,1,0,0,0,1 @ F,0,0,1,0,9.1130766,0,1 @ F,0,0,1,0,0,0,1 @ F,0,0,1,0,0,0,1 @ F,0,0,1,0,0,0,1 @ F,0,0,1,0,0,0,1 @ F,0,0,1,0,0,0,1 @ F,0,0,1,0,0,0,1 @ F,0,0,1,0,0,0,1 @ F,0,0,1,0,0,0,1 @ F,0,0,1,0,0,0,1 @ F,0,0,1,0,0,0,1 @ F,0,0,1,0,0,0,1 @ F,0,0,1,0,0,0,1 @ F,0,0,1,0,0,0,1 @ F,0,0,1,0,0,0,1 @ F,0,0,1,0,0,0,1 @ F,0,0,1,0,0,0,1 @ F,0,0,1,0,0,0,1 @ F,0,0,1,0,0,0,1 @ F,0,0,1,0,0,0,1 @ F,0,0,1,0,0,0,1 @ F,0,0,1,0,0,0,1 @ F,0,0,1,0,0,0,1 @ F,0,0,1,0,0,0,1 @ F,0,0,1,0,0,0,1" only_selected="false" radius="0" unit="px" use_knot_distance="true">
		</inkscape:path-effect>
</defs>
<sodipodi:namedview  bordercolor="#000000" borderopacity="0.25" id="namedview20" inkscape:current-layer="g34" inkscape:cx="1020" inkscape:cy="507" inkscape:deskcolor="#d1d1d1" inkscape:pagecheckerboard="0" inkscape:pageopacity="0.0" inkscape:showpageshadow="2" inkscape:window-height="1001" inkscape:window-maximized="1" inkscape:window-width="1920" inkscape:window-x="-9" inkscape:window-y="-9" inkscape:zoom="0.5" pagecolor="#ffffff" showguides="false">
	</sodipodi:namedview>
<image style="display:none;overflow:visible;opacity:0.2105;enable-background:new    ;" width="1600" height="900" id="image1" xlink:href="9FA693B7.jpeg"  transform="matrix(1.1988 0 0 1.1823 1.8601 8.9485)">
</image>
<g id="g2" transform="translate(2.2991894)">
	
		<path id="path25" inkscape:original-d="m 1000.5,337.5 h 47 l 4.4761,0.67023 4.5239,3.32977 3.6265,3 5.8735,8 8.3265,15.73471 L 1085.5,389 l 15,27.5 c 10.8,20.52 21.3,41.187 31.5,62 20.11,34.292 39.11,69.292 57,105 1.94,5.682 2.6474,9.75625 0.7074,15.40825 -1.07,0.691 -2.9374,2.78275 -4.2074,3.09175 -15.67,0.667 -31.33,0.667 -47,0 -3.2721,-0.0851 -2.8742,0.18349 -7.9149,-0.83014 -3.1359,-4.84328 -1.6293,-3.05429 -3.0851,-4.66986 l -7.2437,-11.23633 -16.3797,-30.8835 -9.1222,-17.3709 L 1084.0005,515.5 1077,501.5 c -8.37,-15.926 -16.681,-31.45491 -25.7483,-47 -2.8402,-4.86928 -5.2281,-9.98869 -7.8095,-15 -0.4382,-0.85073 -0.8504,-1.71492 -1.2485,-2.58512 -0.2972,-0.64953 -4.803,-7.78928 -5.2582,-8.33972 L 1032.738,423.5 c -2.0445,-2.47202 -4.7105,-3.84672 -7.9185,-3.84672 -2.8691,0 -7.2046,1.90791 -9.3195,3.84672 -3.8741,3.55158 -6.4815,8.3122 -9.1537,12.83788 -5.4815,9.28379 -10.1135,19.04408 -15.26344,28.51584 -1.13278,2.0834 -2.47511,4.04946 -3.58286,6.14628 l -14,26.5 -22.08511,39.34046 L 947,544.5 l -27.5,51 -8,5.5 -4,1 c -15,0.667 -30,0.667 -45,0 0,0 -4.21182,-2.0164 -5.43676,-3.87423 C 855.71359,596.07879 855.5,590.93818 855.5,590.93818 L 862.62458,576.1272 866,569.5 l 20,-40 7,-12 c 4.672,-8.037 9.338,-16.037 14,-24 l 36.5,-68 c 6.933,-13.538 14.1,-26.871 21.5,-40 l 4.37589,-7.87494 L 985.5,347.5 l 3.49881,-5.5 6.01851,-3.97605 z" inkscape:path-effect="#path-effect27" sodipodi:nodetypes="cccccccccccccccccccccsssssssssscccccccsccccccccccccc" class="st0" d="
		M1000.5,337.5h47l4.5,0.7l4.5,3.3l3.6,3l5.9,8l8.3,15.7l11.2,20.8l15,27.5c10.8,20.5,21.3,41.2,31.5,62c20.1,34.3,39.1,69.3,57,105
		c1.9,5.7,2.6,9.8,0.7,15.4c-1.1,0.7-2.9,2.8-4.2,3.1c-15.7,0.7-31.3,0.7-47,0c-3.3-0.1-2.9,0.2-7.9-0.8c-3.1-4.8-1.6-3.1-3.1-4.7
		l-7.2-11.2l-16.4-30.9l-9.1-17.4l-10.8-21.5l-7-14c-8.4-15.9-16.7-31.5-25.7-47c-2.8-4.9-5.2-10-7.8-15c-0.4-0.9-0.9-1.7-1.2-2.6
		c-0.3-0.6-4.8-7.8-5.3-8.3l-4.2-5.1c0,0,0,0,0,0c-3.1-3.7-12.3-3.6-16.4-0.7c-0.3,0.2-0.6,0.5-0.9,0.7c-3.9,3.6-6.5,8.3-9.2,12.8
		c-5.5,9.3-10.1,19-15.3,28.5c-1.1,2.1-2.5,4-3.6,6.1l-14,26.5l-22.1,39.3l-4.4,7.7l-27.5,51l-8,5.5l-4,1c-15,0.7-30,0.7-45,0
		c0,0-4.2-2-5.4-3.9c-1.3-2-1.6-7.2-1.6-7.2l7.1-14.8l3.4-6.6l20-40l7-12c4.7-8,9.3-16,14-24l36.5-68c6.9-13.5,14.1-26.9,21.5-40
		l4.4-7.9l16.1-30.1l3.5-5.5l6-4L1000.5,337.5z"/>
	<path id="path23" class="st0" d="M1010.9,428c0,0.6,0,1.2,0,1.8"/>
</g>
<g id="g3" transform="translate(12.005704)">
	<path id="path3" sodipodi:nodetypes="ssssssssssssccccsssssssssssssssccs" class="st1" d="M1313.5,392.5
		c-8.2,0.3-16.5-0.1-24.6,0.9c-1.8,0.2-3.7,0.5-5.4,1.1c-7,2.5-13.8,5.9-20,10c-8.2,5.4-15.8,11.9-22.5,19c-3.8,4-7.6,8.3-10,13.2
		c-2.9,6.1-4.5,13-5,19.8c-1.1,14-0.5,28.7,4,42c0.5,1.3,1.5,6.6,2.2,7.8c3.2,5.6,4.9,7.8,9,12.7c5,6,11.8,10.1,18.3,14.4
		c5.4,3.6,11.3,6.3,17,9.5c9.4,5.3,21.2,4,32,5c59.3,0.5,118.7,0.7,178,0.5v54c-66,0.2-132,0-198-0.5c-28.2-2.6-53.4-12.2-74-30.5
		c-9.2-8.2-17.8-17.1-25-27c-3.7-5.1-1.1-1.3-4.6-6.6c-0.8-1.2-6.4-12-6.9-13.4c-4.6-12.3-8.1-24.9-9.5-38c-2.6-24,0.5-47.6,9.5-70
		c0.8-2,1.7-3.8,2.6-5.8c2.4-5.5,5.7-10.3,8.9-15.2c0.7-1,1.6-2.6,2.2-3.7c1-1.7,9-10.4,10.4-11.8c6.1-6.1,1.3-1.1,7.4-7.2
		c0.7-0.8,3.2-3.7,4-4.3c10.6-8,22.3-14.1,34-20c6.7-3.4,12.4-5.4,23-7.6c7.9-1.7,10.9-2.1,19-2.4c65.6-2.2,131.3-1.3,197-1v55
		C1428.7,391.4,1371,390.5,1313.5,392.5z"/>
</g>
<g id="g4">
	<path id="path4" class="st0" d="M1523.5,337.5c103.7,0,207.3,0,311,0c0,19.7,0,39.3,0,59c-103.7,0-207.3,0-311,0
		C1523.5,376.8,1523.5,357.2,1523.5,337.5z"/>
</g>
<g id="g8">
	<path id="path8" class="st0" d="M1523.5,439.5c91,0,182,0,273,0c0,19.7,0,39.3,0,59c-68.7,0-137.3,0-206,0c0.2,15.3,0.6,30.7,1,46
		c81,0,162,0,243,0c0,19.3,0,38.7,0,58c-103,0.3-206,0-309-1C1524.2,547.5,1523.5,493.5,1523.5,439.5z"/>
</g>
<path id="path27" sodipodi:arc-type="arc" sodipodi:cx="1024.8976" sodipodi:cy="508.58475" sodipodi:end="6.208364" sodipodi:open="true" sodipodi:rx="30.639557" sodipodi:ry="29.764141" sodipodi:start="0" sodipodi:type="arc" class="st0" d="
	M1055.5,508.6c0,16.2-13.4,29.5-30.1,29.8c-16.7,0.3-30.6-12.4-31.2-28.6c-0.6-16.2,12.2-29.9,28.9-30.8s31,11.3,32.3,27.5"/>
<linearGradient id="rect27_1_" gradientUnits="userSpaceOnUse" x1="489.6902" y1="429.8689" x2="1846.7241" y2="429.8689" gradientTransform="matrix(1 0 0 -1 0 1077.8899)">
	<stop  offset="0" style="stop-color:#E90404"/>
	<stop  offset="1" style="stop-color:#48020E;stop-opacity:0"/>
</linearGradient>
<path id="rect27" class="st2" d="M490.8,642.2h1354.8c0.4,0,0.7,0.3,0.7,0.7v10.3c0,0.4-0.3,0.7-0.7,0.7H490.8
	c-0.4,0-0.7-0.3-0.7-0.7v-10.3C490.1,642.5,490.4,642.2,490.8,642.2z"/>
<g id="g31">
	<path id="rect25" class="st0" d="M643.8,566.7h46.1c10.1,0,18.2,8.2,18.2,18.2l0,0c0,10.1-8.2,18.2-18.2,18.2h-46.1
		c-10.1,0-18.2-8.2-18.2-18.2l0,0C625.6,574.8,633.7,566.7,643.8,566.7z"/>
	<g id="g30">
		<g id="g5">
			<path id="path5" sodipodi:nodetypes="cccccccccccccccccccccccccccc" class="st0" d="M778.9,338.9c1.3,0,1.2-0.1,3.6,0.1
				c20.3,0.5,40.7,0.7,61,0.5c0.3,87.3,0,174.7-1,262h-62c-0.8-44.7-1.1-89.3-1-134c-2.2,3-4.3,6-6.5,9l-11.2,19l-6.8,13l-5.1,9
				l-2.4,4l-7,11l0.4-0.6c0.7,0-10.3,19.8-13.4,25.2c-1,0.7-4.1,7.9-5.1,8.5c-4.7,11.2-10.7,19.8-17.4,29.9
				c-5,2.5-10.1,4.7-15.5,6.5c-15.3,0.7-30.7,0.7-46,0c-4.4-2.5-9.1-4.3-14-5.5c-20.1-39.1-40.9-77.8-62.5-116
				c-0.6,40.7-0.4,81.3,0.5,122c-21-0.7-42-1-63-1v-262c20.7-0.2,41.3,0,62,0.5c0.9,0.4,1.8,0.9,2.5,1.5
				c33.3,61.3,66.7,122.7,100,184c20.8-33.5,40.8-67.5,60-102C747.1,395.6,763.4,368.3,778.9,338.9z"/>
		</g>
		<path id="rect30" class="st0" d="M777.8,441.2L777.8,441.2c7.1,4.9,9.3,15.1,4.9,22.6l-75,128.3c-4.4,7.5-13.7,9.7-20.8,4.7h0
			c-7.1-4.9-9.3-15.1-4.9-22.6l75-128.3C761.4,438.3,770.7,436.2,777.8,441.2z"/>
	</g>
</g>
<ellipse id="path35" class="st3" cx="253.1" cy="513.2" rx="210.1" ry="220.1"/>
<ellipse id="ellipse36" transform="matrix(0.9125 -0.409 0.409 0.9125 -187.9163 148.5221)" class="st4" cx="253.3" cy="513.6" rx="144.6" ry="218.6"/>
<ellipse id="path34" transform="matrix(0.5733 -0.8193 0.8193 0.5733 -312.1057 424.1926)" class="st5" cx="251.2" cy="511.8" rx="216.2" ry="143.5"/>
<ellipse id="ellipse35" transform="matrix(5.573865e-02 -0.9984 0.9984 5.573865e-02 -271.4552 738.6268)" class="st6" cx="254.8" cy="512.8" rx="220.2" ry="144.1"/>
<g id="g34" transform="matrix(0.75454764,0.35418114,-0.34206605,0.79267731,235.05907,24.986703)">
	<path id="rect31" class="st0" d="M251.7,343L251.7,343c58.8,0,106.6,47.7,106.6,106.6l0,132.1c0,58.8-47.7,106.6-106.6,106.6l0,0
		c-58.8,0-106.6-47.7-106.6-106.6l0-132.1C145.2,390.7,192.9,343,251.7,343z"/>
	<path id="rect35" class="st0" d="M262.4,158.6L262.4,158.6c2.5-0.2,4.4,2.6,4.2,6.2l-7.2,170.5c-0.2,3.6-2.3,6.6-4.8,6.8l0,0
		c-2.5,0.2-4.4-2.6-4.2-6.2l7.2-170.5C257.8,161.8,259.9,158.8,262.4,158.6z"/>
	<polygon id="rect32" class="st7" points="142.7,503 359.4,496.1 359.5,499.1 142.8,506 	"/>
	<polygon id="rect33" class="st7" points="255.3,343.2 255.3,500.4 252.5,500.4 252.4,343.2 	"/>
	<path id="rect34" class="st6" d="M252.4,405.5h3.2c8.3,0,15,6.7,15,15v40.4c0,8.3-6.7,15-15,15h-3.2c-8.3,0-15-6.7-15-15l0-40.4
		C237.3,412.2,244.1,405.5,252.4,405.5z"/>
</g>
<text transform="matrix(3.5811 0 0 1 699.2151 747.6057)" class="st8 st9 st10 st11">T E C H N O L O G Y</text>
</svg>
