<svg xmlns="http://www.w3.org/2000/svg" viewBox="0 0 1763.49 476.41"><defs><style>.cls-1{fill:#fff;}.cls-2{fill:#c1272d;}.cls-3{fill:#004998;}.cls-4{fill:#213567;}.cls-5{font-size:91.13px;font-family:MyriadPro-Regular, Myriad Pro;}</style></defs><g id="Capa_2" data-name="Capa 2"><g id="Capa_1-2" data-name="Capa 1"><ellipse class="cls-1" cx="261.5" cy="238.2" rx="261.5" ry="238.2"/><path class="cls-2" d="M467.7,319.3a18.46,18.46,0,0,1-1.76,7.83,27.36,27.36,0,0,1-4.22,6.39A53.78,53.78,0,0,1,450.64,343a107.14,107.14,0,0,1-12.34,7c-4.22,2.08-8.52,3.95-12.87,5.66A352.88,352.88,0,0,1,372,371.25q-13.59,2.91-27.3,5.13c-9.14,1.47-18.32,2.65-27.51,3.71s-18.41,2-27.64,2.48-18.49.32-27.72.07c-36.93-1.23-73.8-4.72-110.07-12.05-18.12-3.72-36.14-8.22-53.62-14.83-4.36-1.65-8.69-3.46-12.94-5.5a107.17,107.17,0,0,1-12.49-6.85A52.86,52.86,0,0,1,61.38,334a27.43,27.43,0,0,1-4.32-6.56,19,19,0,0,1-1.75-8.1,18.83,18.83,0,0,1,2.08-7.95,26.07,26.07,0,0,1,4.55-6.2,52,52,0,0,1,11.53-8.64c8.19-4.69,16.88-7.93,25.62-10.79a361.26,361.26,0,0,1,53.56-12.06c18-2.84,36.23-4.71,54.44-5.86q13.66-.85,27.34-1.19c9.12-.19,18.24-.3,27.36-.38,18.23-.14,36.48.29,54.7,1.44s36.4,3,54.47,5.79S407,279.9,424.53,285.6c4.37,1.43,8.71,3,13,4.82A104.94,104.94,0,0,1,450,296.63a51.59,51.59,0,0,1,11.35,8.75,25.87,25.87,0,0,1,4.39,6.17A18.19,18.19,0,0,1,467.7,319.3Zm-5.48,0a12.92,12.92,0,0,0-1.24-5.44,21,21,0,0,0-3.41-5,46.61,46.61,0,0,0-10.06-8.1,100.38,100.38,0,0,0-11.82-6.19c-4.08-1.84-8.28-3.49-12.53-5-17-6-34.81-10-52.68-13.21s-36-5.26-54.13-6.74-36.35-2.23-54.56-2.41c-9.11-.05-18.22.12-27.32.57s-18.18,1-27.25,1.71c-18.15,1.49-36.24,3.61-54.16,6.68q-13.42,2.3-26.67,5.54c-4.4,1.08-8.79,2.24-13.13,3.51s-8.65,2.69-12.89,4.22-8.43,3.21-12.49,5.11a98.59,98.59,0,0,0-11.74,6.33,45.65,45.65,0,0,0-9.88,8.2,20.31,20.31,0,0,0-3.26,5,11.17,11.17,0,0,0,.34,10.31A20.19,20.19,0,0,0,66.82,329a46,46,0,0,0,10.12,7.39,122.11,122.11,0,0,0,24.42,9.86c8.52,2.56,17.24,4.6,26,6.31s17.68,3.08,26.59,4.21c17.84,2.27,35.83,3.49,53.81,4.21s36,.69,54,.11c9-.26,18-.71,26.94-.87s18-.13,27-.42,18-.73,26.93-1.33,17.92-1.34,26.85-2.35,17.82-2.24,26.64-3.82a255.68,255.68,0,0,0,26.14-5.94c4.28-1.22,8.51-2.59,12.64-4.16a99,99,0,0,0,12-5.38,45.27,45.27,0,0,0,10.34-7.39,19.89,19.89,0,0,0,3.58-4.76A12.92,12.92,0,0,0,462.22,319.3Z"/><polygon class="cls-3" points="165.97 189.38 250.51 189.38 250.51 50.3 208.24 121.1 165.97 189.38"/><polygon class="cls-3" points="362.32 189.38 272.32 189.38 272.32 50.3 317.32 121.1 362.32 189.38"/><polygon class="cls-3" points="362.32 211.2 272.32 211.2 272.32 350.29 317.32 279.48 362.32 211.2"/><polygon class="cls-3" points="165.97 211.2 250.51 211.2 250.51 350.29 208.24 279.48 165.97 211.2"/><polygon class="cls-4" points="262.78 318.92 194.6 201.65 262.78 87.11 328.23 201.65 262.78 318.92"/><text class="cls-5" transform="translate(362.4 126.32) scale(1.03 1)">R</text><path d="M654.65,129.85h99.7l-3.58,21.07h-77.7l-11.23,66h65.89L724.15,238H658.26l-14.89,87.56h-22Z"/><path d="M785.13,137.67h21.12l-32,187.9H753.18Z"/><path d="M828.52,231.79c10.3-60.6,48.76-97.55,92.76-97.55,23,0,36.13,11.81,43.92,23.17L951,173c-6.74-9.82-16.05-17.72-32.72-17.72-33.43,0-59.86,29.09-67.82,75.89-8,47.23,6.66,76.83,42.07,76.83,11.9,0,24-4,31.78-11L932.61,248H897.46l3.37-19.81h54.4l-13.43,79C929,319.78,909.24,329,886.94,329,843.15,329,818.14,292.81,828.52,231.79Z"/><path d="M1012.7,137.67h52c33.8,0,55.74,13.75,49.08,52.89-6.38,37.52-33.72,55.59-67.52,55.59h-30.86l-13.51,79.42H980.75Zm33.8,89.09c25.82,0,42.06-11.85,46.2-36.2,4.2-24.72-8.53-33.49-34.35-33.49h-27.82l-11.85,69.69Zm-3.31,12.84,18.65-12.37,33.91,98.34h-23.93Z"/><path d="M1192.23,137.67h23.83l24.19,187.9h-22.37l-11.1-104.94c-2.39-21-4.21-41.63-5.84-63.32h-1c-8.85,21.79-17.66,42.31-27.2,63.32l-47.1,104.94h-21.49Zm-45.6,111.58h76.42l-3.25,19.08h-76.42Z"/><path d="M1340.13,227.88c10.74-63.13,50.8-101.61,96.63-101.61,24,0,37.64,12.3,45.75,24.14l-14.81,16.21c-7-10.23-16.72-18.46-34.08-18.46-34.83,0-62.36,30.3-70.65,79.06-8.37,49.2,6.94,80,43.82,80,12.4,0,25-4.21,33.11-11.49l8.66-51H1412l3.51-20.64h56.67l-14,82.27c-13.35,13.12-33.92,22.73-57.15,22.73C1355.38,329.15,1329.33,291.44,1340.13,227.88Z"/><path d="M1563.84,137.67h23.83l24.2,187.9H1589.5l-11.1-104.94c-2.39-21-4.21-41.63-5.85-63.32h-1c-8.84,21.79-17.66,42.31-27.19,63.32l-47.1,104.94h-21.5Zm-45.59,111.58h76.41l-3.24,19.08H1515Z"/><path d="M1630,301.11l15.43-16.41c9.56,14,24.57,23.28,41.83,23.28,21.77,0,36.78-12.28,39.88-30.54,3.26-19.18-7.71-25.3-22.06-33.05l-21.82-11.9c-14.19-7.48-30.08-20.75-25.38-48.38,4.88-28.7,30.57-49.87,60.73-49.87a53.63,53.63,0,0,1,44.9,23.28l-13.81,15.36c-8.32-10.87-19.33-17.62-34.67-17.62-18.61,0-32.74,10.63-35.6,27.43-3.08,18.1,10.24,24.87,22.18,31.1l21.69,11.58c17.61,9.34,30.4,22.3,25.65,50.24-5,29.68-30.75,53.39-65.64,53.39C1660,329,1641.57,318.24,1630,301.11Z"/></g></g></svg>